<svg width="64" height="64" viewBox="0 0 64 64" fill="none" xmlns="http://www.w3.org/2000/svg">
<g clip-path="url(#clip0_1_2)">
<rect width="64" height="64" fill="#0966F0"/>
<path d="M44.12 53H19.4V47.3C19.4 44.42 19.78 42.02 20.54 40.1C21.3 38.14 22.32 36.54 23.6 35.3C24.88 34.02 26.28 33 27.8 32.24L31.88 30.2C33.44 29.4 34.7 28.56 35.66 27.68C36.66 26.76 37.16 25.58 37.16 24.14V23.06C37.16 21.58 36.64 20.42 35.6 19.58C34.6 18.7 32.98 18.26 30.74 18.26C29.38 18.26 28 18.46 26.6 18.86C25.24 19.26 23.58 19.82 21.62 20.54L19.4 14.36C21.64 13.36 23.68 12.66 25.52 12.26C27.4 11.82 29.22 11.6 30.98 11.6C34.22 11.6 36.8 12.12 38.72 13.16C40.68 14.2 42.08 15.6 42.92 17.36C43.8 19.08 44.24 20.98 44.24 23.06V24.14C44.24 26.3 43.8 28.14 42.92 29.66C42.08 31.18 40.96 32.46 39.56 33.5C38.16 34.54 36.64 35.46 35 36.26L30.92 38.3C29.44 39.02 28.34 40.02 27.62 41.3C26.94 42.58 26.56 44.22 26.48 46.22H44.12V53Z" fill="white"/>
</g>
<defs>
<clipPath id="clip0_1_2">
<rect width="64" height="64" fill="white"/>
</clipPath>
</defs>
</svg>
