<svg width="64" height="64" viewBox="0 0 64 64" fill="none" xmlns="http://www.w3.org/2000/svg">
<g clip-path="url(#clip0_1_2)">
<rect width="64" height="64" fill="#E0D708"/>
<path d="M43.76 41.9C43.76 44.02 43.32 45.98 42.44 47.78C41.56 49.54 40.14 50.96 38.18 52.04C36.26 53.08 33.68 53.6 30.44 53.6C28.6 53.6 26.68 53.38 24.68 52.94C22.72 52.5 20.56 51.76 18.2 50.72L20.42 44.54C22.54 45.3 24.32 45.9 25.76 46.34C27.24 46.74 28.72 46.94 30.2 46.94C32.32 46.94 33.92 46.52 35 45.68C36.12 44.8 36.68 43.44 36.68 41.6V40.76C36.68 39.24 36.2 38.02 35.24 37.1C34.32 36.14 32.88 35.66 30.92 35.66H24.56V29.18H30.92C32.8 29.18 34.18 28.74 35.06 27.86C35.94 26.94 36.38 25.76 36.38 24.32V23.48C36.38 21.64 35.86 20.32 34.82 19.52C33.82 18.68 32.34 18.26 30.38 18.26C28.98 18.26 27.56 18.46 26.12 18.86C24.72 19.22 23.02 19.78 21.02 20.54L18.8 14.36C21.04 13.32 23.12 12.6 25.04 12.2C26.96 11.8 28.82 11.6 30.62 11.6C33.7 11.6 36.18 12.12 38.06 13.16C39.94 14.2 41.3 15.6 42.14 17.36C43.02 19.12 43.46 21.06 43.46 23.18V24.02C43.46 25.9 42.98 27.56 42.02 29C41.1 30.4 39.88 31.52 38.36 32.36C40 33.24 41.3 34.42 42.26 35.9C43.26 37.34 43.76 39.06 43.76 41.06V41.9Z" fill="white"/>
</g>
<defs>
<clipPath id="clip0_1_2">
<rect width="64" height="64" fill="white"/>
</clipPath>
</defs>
</svg>
