<svg width="64" height="64" viewBox="0 0 64 64" fill="none" xmlns="http://www.w3.org/2000/svg">
<g clip-path="url(#clip0_1_2)">
<rect width="64" height="64" fill="#0496C4"/>
<path d="M19.02 31.94L20.22 12.2H41.1V18.98H26.58L26.04 27.98C27.44 27.62 28.94 27.44 30.54 27.44C34.5 27.44 37.6 28.48 39.84 30.56C42.08 32.6 43.2 35.62 43.2 39.62V41.24C43.2 43.48 42.74 45.54 41.82 47.42C40.9 49.3 39.42 50.8 37.38 51.92C35.38 53.04 32.72 53.6 29.4 53.6C27.56 53.6 25.64 53.38 23.64 52.94C21.68 52.5 19.52 51.76 17.16 50.72L19.38 44.54C21.5 45.38 23.28 46 24.72 46.4C26.2 46.76 27.68 46.94 29.16 46.94C31.4 46.94 33.08 46.48 34.2 45.56C35.36 44.64 35.94 43.2 35.94 41.24V39.62C35.94 37.86 35.42 36.46 34.38 35.42C33.38 34.38 31.76 33.86 29.52 33.86C28.52 33.86 27.48 34 26.4 34.28C25.32 34.52 24.16 34.88 22.92 35.36L19.02 31.94Z" fill="white"/>
</g>
<defs>
<clipPath id="clip0_1_2">
<rect width="64" height="64" fill="white"/>
</clipPath>
</defs>
</svg>
