<svg width="64" height="64" viewBox="0 0 64 64" fill="none" xmlns="http://www.w3.org/2000/svg">
<g clip-path="url(#clip0_1_2)">
<rect width="64" height="64" fill="#009A0F"/>
<path d="M46.38 40.76C46.38 43.2 45.84 45.4 44.76 47.36C43.68 49.28 42.14 50.8 40.14 51.92C38.18 53.04 35.8 53.6 33 53.6C28.56 53.6 25.1 52.1 22.62 49.1C20.14 46.1 18.9 41.98 18.9 36.74V28.28C18.9 22.68 20.22 18.5 22.86 15.74C25.5 12.98 29.22 11.6 34.02 11.6C35.7 11.6 37.44 11.8 39.24 12.2C41.08 12.6 43.1 13.32 45.3 14.36L42.72 20.54C40.92 19.7 39.34 19.12 37.98 18.8C36.62 18.44 35.36 18.26 34.2 18.26C31.68 18.26 29.64 19.02 28.08 20.54C26.56 22.02 25.8 24.6 25.8 28.28V30.44C27.2 29.2 28.64 28.28 30.12 27.68C31.64 27.08 33.14 26.78 34.62 26.78C37.02 26.78 39.1 27.32 40.86 28.4C42.62 29.48 43.98 30.98 44.94 32.9C45.9 34.82 46.38 37.04 46.38 39.56V40.76ZM25.8 36.74C25.8 40.18 26.44 42.74 27.72 44.42C29 46.1 30.8 46.94 33.12 46.94C35.12 46.94 36.66 46.38 37.74 45.26C38.82 44.1 39.36 42.6 39.36 40.76V39.56C39.36 37.68 38.86 36.16 37.86 35C36.86 33.84 35.42 33.26 33.54 33.26C30.7 33.26 28.12 34.34 25.8 36.5V36.74Z" fill="white"/>
</g>
<defs>
<clipPath id="clip0_1_2">
<rect width="64" height="64" fill="white"/>
</clipPath>
</defs>
</svg>
