<svg width="64" height="64" viewBox="0 0 64 64" fill="none" xmlns="http://www.w3.org/2000/svg">
<g clip-path="url(#clip0_1_2)">
<rect width="64" height="64" fill="#CF9500"/>
<path d="M45.54 41.9C45.54 44.1 45.02 46.08 43.98 47.84C42.98 49.6 41.44 51 39.36 52.04C37.28 53.08 34.64 53.6 31.44 53.6C28.28 53.6 25.72 53.12 23.76 52.16C21.8 51.16 20.36 49.86 19.44 48.26C18.52 46.66 18.06 44.88 18.06 42.92C18.06 40.96 18.52 39.16 19.44 37.52C20.36 35.84 21.88 34.3 24 32.9C22.32 31.78 21.02 30.4 20.1 28.76C19.22 27.12 18.78 25.2 18.78 23C18.78 20.88 19.28 18.96 20.28 17.24C21.28 15.52 22.74 14.16 24.66 13.16C26.58 12.12 28.88 11.6 31.56 11.6C34.44 11.6 36.86 12.08 38.82 13.04C40.78 14 42.24 15.3 43.2 16.94C44.2 18.54 44.7 20.34 44.7 22.34C44.7 24.1 44.28 25.76 43.44 27.32C42.64 28.84 41.28 30.26 39.36 31.58C43.48 33.9 45.54 37.34 45.54 41.9ZM31.02 28.52L33.96 29.42C35.32 28.26 36.26 27.2 36.78 26.24C37.34 25.24 37.62 24.22 37.62 23.18C37.62 21.58 37.1 20.32 36.06 19.4C35.06 18.44 33.62 17.96 31.74 17.96C29.86 17.96 28.4 18.42 27.36 19.34C26.36 20.26 25.86 21.52 25.86 23.12C25.86 25.64 27.58 27.44 31.02 28.52ZM25.14 41.9C25.14 43.5 25.72 44.8 26.88 45.8C28.04 46.76 29.68 47.24 31.8 47.24C33.88 47.24 35.5 46.76 36.66 45.8C37.86 44.84 38.46 43.56 38.46 41.96C38.46 40.76 38.02 39.68 37.14 38.72C36.3 37.72 34.84 36.9 32.76 36.26L29.52 35.24C28.04 36.44 26.94 37.56 26.22 38.6C25.5 39.64 25.14 40.74 25.14 41.9Z" fill="white"/>
</g>
<defs>
<clipPath id="clip0_1_2">
<rect width="64" height="64" fill="white"/>
</clipPath>
</defs>
</svg>
