<svg width="64" height="64" viewBox="0 0 64 64" fill="none" xmlns="http://www.w3.org/2000/svg">
<g clip-path="url(#clip0_1_2)">
<rect width="64" height="64" fill="#770E00"/>
<path d="M45.24 36.92C45.24 42.52 43.92 46.7 41.28 49.46C38.64 52.22 34.92 53.6 30.12 53.6C28.44 53.6 26.7 53.4 24.9 53C23.1 52.6 21.08 51.88 18.84 50.84L21.42 44.66C23.22 45.5 24.8 46.1 26.16 46.46C27.56 46.78 28.82 46.94 29.94 46.94C32.46 46.94 34.48 46.18 36 44.66C37.56 43.14 38.34 40.56 38.34 36.92V34.76C36.98 36 35.54 36.92 34.02 37.52C32.54 38.12 31.04 38.42 29.52 38.42C27.16 38.42 25.08 37.88 23.28 36.8C21.52 35.72 20.16 34.22 19.2 32.3C18.24 30.38 17.76 28.16 17.76 25.64V24.44C17.76 22.2 18.3 20.1 19.38 18.14C20.46 16.18 22 14.6 24 13.4C26 12.2 28.38 11.6 31.14 11.6C35.58 11.6 39.04 13.1 41.52 16.1C44 19.1 45.24 23.22 45.24 28.46V36.92ZM24.78 25.64C24.78 27.48 25.28 29 26.28 30.2C27.32 31.36 28.76 31.94 30.6 31.94C33.44 31.94 36.02 30.86 38.34 28.7V28.46C38.34 25.02 37.7 22.46 36.42 20.78C35.18 19.1 33.38 18.26 31.02 18.26C29.06 18.26 27.52 18.9 26.4 20.18C25.32 21.46 24.78 22.88 24.78 24.44V25.64Z" fill="white"/>
</g>
<defs>
<clipPath id="clip0_1_2">
<rect width="64" height="64" fill="white"/>
</clipPath>
</defs>
</svg>
